# xmcd
#
# Track frame offsets: 
#        150
#        25815
#        48367
#        69832
#        84888
#        101435
#        120248
#        135918
#        161585
#        178209
#        195966
#        218265
#        235055
#        251986
#
# Disc length: 3609 seconds
#
# Revision: 0
# Processed by: cddbd v1.5.2PL0 Copyright (c) Steve Scherf et al.
# Submitted via: ExactAudioCopy v0.95a5
#
DISCID=a30e170e
DTITLE=HD金碟 - 红色经典
DYEAR=1900
DGENRE=Chamber Music
TTITLE0=十送红军
TTITLE1=我的祖国
TTITLE2=映山红
TTITLE3=送别
TTITLE4=南泥湾
TTITLE5=东方红
TTITLE6=四季歌
TTITLE7=渔光曲
TTITLE8=驼铃
TTITLE9=牧羊曲
TTITLE10=敖包相会
TTITLE11=血染的风采
TTITLE12=军民团结一家亲
TTITLE13=弹起我心爱的土琵琶
EXTD=
EXTT0=
EXTT1=
EXTT2=
EXTT3=
EXTT4=
EXTT5=
EXTT6=
EXTT7=
EXTT8=
EXTT9=
EXTT10=
EXTT11=
EXTT12=
EXTT13=
PLAYORDER=
